<svg width="125" height="96" viewBox="0 0 125 96" fill="none" xmlns="http://www.w3.org/2000/svg">
<g clip-path="url(#clip0_1_292)">
<mask id="mask0_1_292" style="mask-type:alpha" maskUnits="userSpaceOnUse" x="3" y="23" width="93" height="51">
<path d="M3.35889 73.1411H95.3221V23.3252H3.35889V73.1411Z" fill="white"/>
</mask>
<g mask="url(#mask0_1_292)">
<path d="M64.4165 47.589C64.3858 61.6227 54.0024 71.8681 39.6926 71.8681H33.849V62.7577H39.6926C48.7723 62.7577 55.122 56.4847 55.1374 47.5737C55.122 38.6473 48.7723 32.4356 39.6926 32.4356H33.849V23.3252H39.6926C54.0024 23.3252 64.3858 33.5092 64.4165 47.543V47.589ZM64.4012 32.0522H75.5668C78.9411 32.0522 81.211 32.7424 82.8521 34.3375C84.3552 35.7792 85.122 37.6964 85.122 39.8436C85.122 44.7516 80.8122 47.6657 76.0116 47.6657H73.2202L69.9533 54.5982L88.2048 73.1872L95.3061 67.3283L82.3766 54.5215C89.5239 53.2178 94.4012 46.7915 94.4012 40.043C94.4012 34.9816 92.9441 31.0859 89.2631 27.6964C85.4595 24.1841 81.2263 23.3252 74.8613 23.3252H64.4012V32.0522ZM34.1098 42.727H13.3122V23.3252H3.29688V71.8681H13.3122V52.4356H34.1098V42.727Z" fill="white"/>
</g>
</g>
<defs>
<clipPath id="clip0_1_292">
<rect width="125" height="96" fill="white"/>
</clipPath>
</defs>
</svg>
