<svg width="43" height="44" viewBox="0 0 43 44" fill="none" xmlns="http://www.w3.org/2000/svg">
<path d="M22.0387 1.00286C18.0337 0.925216 13.3673 2.44167 10.9951 4.19168C14.6117 3.88048 17.3726 4.85259 22 7.2248C26.5655 4.76914 29.3885 3.88048 32.927 4.19168C30.0106 2.13068 25.8497 1.00286 22.0387 1.00286Z" fill="#F7F7F7"/>
<path d="M16.2839 12.5909C12.5899 9.05237 9.54471 6.62918 7.37897 6.99136C0.962817 12.3575 -2.10901 25.5789 5.39581 34.7172C4.11271 29.662 10.0622 20.4069 16.2839 12.5909Z" fill="#F7F7F7"/>
<path d="M36.3879 35.962C35.9992 32.2288 29.6994 23.985 22 17.8799C15.3894 22.8961 7.88434 31.5677 7.57314 36.1951C7.40367 38.7153 14.8838 43.0004 21.961 43.0004C29.194 43.0004 36.6713 38.6839 36.3879 35.962Z" fill="#F7F7F7"/>
<path d="M27.4834 12.5909C31.1774 9.05237 34.2224 6.62918 36.3883 6.99136C42.8045 12.3575 45.8763 25.5789 38.3715 34.7172C39.6546 29.662 33.7051 20.4069 27.4834 12.5909Z" fill="#F7F7F7"/>
<path d="M22.0387 1.00286C18.0337 0.925216 13.3673 2.44167 10.9951 4.19168C14.6117 3.88048 17.3726 4.85259 22 7.2248C26.5655 4.76914 29.3885 3.88048 32.927 4.19168C30.0106 2.13068 25.8497 1.00286 22.0387 1.00286Z" stroke="#F7F7F7" stroke-width="0.215069" stroke-linecap="round" stroke-linejoin="round"/>
<path d="M16.2839 12.5909C12.5899 9.05237 9.54471 6.62918 7.37897 6.99136C0.962817 12.3575 -2.10901 25.5789 5.39581 34.7172C4.11271 29.662 10.0622 20.4069 16.2839 12.5909Z" stroke="#F7F7F7" stroke-width="0.215069" stroke-linecap="round" stroke-linejoin="round"/>
<path d="M36.3879 35.962C35.9992 32.2288 29.6994 23.985 22 17.8799C15.3894 22.8961 7.88434 31.5677 7.57314 36.1951C7.40367 38.7153 14.8838 43.0004 21.961 43.0004C29.194 43.0004 36.6713 38.6839 36.3879 35.962Z" stroke="#F7F7F7" stroke-width="0.215069" stroke-linecap="round" stroke-linejoin="round"/>
<path d="M27.4834 12.5909C31.1774 9.05237 34.2224 6.62918 36.3883 6.99136C42.8045 12.3575 45.8763 25.5789 38.3715 34.7172C39.6546 29.662 33.7051 20.4069 27.4834 12.5909Z" stroke="#F7F7F7" stroke-width="0.215069" stroke-linecap="round" stroke-linejoin="round"/>
</svg>
