<svg width="144" height="44" viewBox="0 0 144 44" fill="none" xmlns="http://www.w3.org/2000/svg">
<path d="M22.6075 1.00286C18.6025 0.925216 13.9362 2.44167 11.564 4.19168C15.1806 3.88048 17.9414 4.85259 22.5688 7.2248C27.1343 4.76914 29.9573 3.88048 33.4958 4.19168C30.5795 2.13068 26.4186 1.00286 22.6075 1.00286Z" fill="#F7F7F7"/>
<path d="M16.8527 12.5909C13.1587 9.05237 10.1136 6.62918 7.94781 6.99136C1.53166 12.3575 -1.54017 25.5789 5.96466 34.7172C4.68156 29.662 10.631 20.4069 16.8527 12.5909Z" fill="#F7F7F7"/>
<path d="M36.9567 35.962C36.5681 32.2288 30.2683 23.985 22.5688 17.8799C15.9582 22.8961 8.45319 31.5677 8.14199 36.1951C7.97251 38.7153 15.4526 43.0004 22.5299 43.0004C29.7629 43.0004 37.2402 38.6839 36.9567 35.962Z" fill="#F7F7F7"/>
<path d="M28.0522 12.5909C31.7463 9.05237 34.7912 6.62918 36.9572 6.99136C43.3733 12.3575 46.4452 25.5789 38.9403 34.7172C40.2234 29.662 34.274 20.4069 28.0522 12.5909Z" fill="#F7F7F7"/>
<path d="M22.6075 1.00286C18.6025 0.925216 13.9362 2.44167 11.564 4.19168C15.1806 3.88048 17.9414 4.85259 22.5688 7.2248C27.1343 4.76914 29.9573 3.88048 33.4958 4.19168C30.5795 2.13068 26.4186 1.00286 22.6075 1.00286Z" stroke="#F7F7F7" stroke-width="0.215069" stroke-linecap="round" stroke-linejoin="round"/>
<path d="M16.8527 12.5909C13.1587 9.05237 10.1136 6.62918 7.94781 6.99136C1.53166 12.3575 -1.54017 25.5789 5.96466 34.7172C4.68156 29.662 10.631 20.4069 16.8527 12.5909Z" stroke="#F7F7F7" stroke-width="0.215069" stroke-linecap="round" stroke-linejoin="round"/>
<path d="M36.9567 35.962C36.5681 32.2288 30.2683 23.985 22.5688 17.8799C15.9582 22.8961 8.45319 31.5677 8.14199 36.1951C7.97251 38.7153 15.4526 43.0004 22.5299 43.0004C29.7629 43.0004 37.2402 38.6839 36.9567 35.962Z" stroke="#F7F7F7" stroke-width="0.215069" stroke-linecap="round" stroke-linejoin="round"/>
<path d="M28.0522 12.5909C31.7463 9.05237 34.7912 6.62918 36.9572 6.99136C43.3733 12.3575 46.4452 25.5789 38.9403 34.7172C40.2234 29.662 34.274 20.4069 28.0522 12.5909Z" stroke="#F7F7F7" stroke-width="0.215069" stroke-linecap="round" stroke-linejoin="round"/>
<path d="M54.1983 9.56104H49.8818L58.6313 21.6546L49.1431 34.7592H53.4206L60.8088 24.6488L68.1584 34.7592H72.4748L62.9866 21.6546L71.7358 9.56104H67.4583L60.8088 18.6991L54.1983 9.56104Z" fill="#F7F7F7" stroke="#F7F7F7" stroke-width="0.215069" stroke-linecap="round" stroke-linejoin="round"/>
<path d="M124.154 9.56104H119.838L128.588 21.6546L119.099 34.7592H123.377L130.765 24.6488L138.114 34.7592H142.431L132.943 21.6546L141.691 9.56104H137.415L130.765 18.6991L124.154 9.56104Z" fill="#F7F7F7" stroke="#F7F7F7" stroke-width="0.215069" stroke-linecap="round" stroke-linejoin="round"/>
<path fill-rule="evenodd" clip-rule="evenodd" d="M68.9297 23.5062L71.1879 20.3877H74.5215V9.63428H86.2427C94.8455 9.63428 95.8133 19.2048 90.4366 21.6781C97.1037 23.8288 96.0284 34.9049 87.103 34.9049H74.5215V23.5062H68.9297ZM78.3927 20.3877V12.9678H86.2427C91.4044 12.9678 90.9742 20.3877 86.2427 20.3877H78.3927ZM78.3927 31.4638V23.7213H86.8879C92.2647 23.7213 92.1571 31.3562 86.8879 31.4638H78.3927Z" fill="#F7F7F7" stroke="#F7F7F7" stroke-width="0.215069" stroke-linecap="round" stroke-linejoin="round"/>
<path fill-rule="evenodd" clip-rule="evenodd" d="M96.0278 22.0002C96.2429 12.3221 102.695 8.77344 108.717 8.77344C115.276 8.88097 120.761 13.3974 120.761 22.0002C120.546 31.8933 114.201 35.0118 108.717 35.2269C99.3614 35.0118 96.2429 28.2372 96.0278 22.0002ZM108.717 12.2145C104.2 11.9829 100.114 14.7954 99.8991 22.0002C100.007 27.3769 102.48 31.5707 108.717 31.6783C113.556 31.2481 116.459 27.807 116.567 22.0002C116.567 15.5481 112.911 12.4296 108.717 12.2145Z" fill="#F7F7F7" stroke="#F7F7F7" stroke-width="0.215069"/>
</svg>
