<svg width="174" height="174" viewBox="0 0 174 174" fill="none" xmlns="http://www.w3.org/2000/svg">
<path d="M173.361 87.5294C173.361 135.246 134.692 173.927 86.9898 173.927C39.2881 173.927 0.618164 135.246 0.618164 87.5294C0.618164 39.8132 39.2881 1.13159 86.9898 1.13159C134.692 1.13159 173.361 39.8132 173.361 87.5294Z" fill="url(#paint0_angular_1_398)"/>
<path d="M163.328 89.205L159.391 88.992L159.476 87.4082L168.437 87.8929L168.353 89.4417L164.971 89.2587L164.967 89.3375C165.337 89.5155 165.623 89.7752 165.824 90.1166C166.028 90.4611 166.116 90.8901 166.088 91.4034C166.063 91.8701 165.943 92.2717 165.729 92.6082C165.515 92.9447 165.214 93.1976 164.828 93.3669C164.441 93.539 163.977 93.6104 163.434 93.5811L159.155 93.3496L159.241 91.7658L163.275 91.984C163.727 92.0085 164.085 91.9108 164.348 91.6911C164.614 91.4744 164.759 91.1575 164.781 90.7404C164.796 90.4604 164.749 90.2062 164.638 89.9779C164.53 89.7527 164.366 89.5712 164.145 89.4335C163.925 89.2987 163.652 89.2225 163.328 89.205Z" fill="black"/>
<path d="M158.554 97.67C158.626 97.2496 158.765 96.8838 158.973 96.5725C159.182 96.2646 159.452 96.0381 159.782 95.8931C160.112 95.7509 160.494 95.717 160.929 95.7913C161.303 95.8553 161.601 95.9774 161.822 96.1574C162.043 96.3375 162.207 96.5596 162.313 96.8237C162.419 97.0878 162.483 97.3759 162.507 97.6882C162.533 98.0038 162.536 98.3258 162.515 98.6542C162.489 99.0498 162.471 99.3712 162.462 99.6185C162.455 99.8663 162.477 100.051 162.527 100.172C162.58 100.297 162.681 100.372 162.831 100.397L162.857 100.402C163.182 100.457 163.45 100.404 163.662 100.242C163.873 100.079 164.01 99.8167 164.072 99.4539C164.138 99.0709 164.106 98.7529 163.977 98.4998C163.848 98.2495 163.677 98.066 163.463 97.9494L163.919 96.5251C164.303 96.7092 164.607 96.9568 164.833 97.268C165.061 97.5797 165.21 97.9386 165.28 98.3447C165.352 98.7512 165.349 99.1863 165.27 99.6499C165.215 99.9695 165.124 100.281 164.995 100.585C164.866 100.889 164.692 101.157 164.475 101.39C164.26 101.623 163.992 101.793 163.672 101.901C163.35 102.012 162.969 102.03 162.529 101.955L158.089 101.195L158.346 99.6925L159.257 99.8484L159.266 99.7965C159.098 99.67 158.948 99.5066 158.817 99.3062C158.687 99.1093 158.596 98.8729 158.542 98.597C158.491 98.3245 158.495 98.0155 158.554 97.67ZM159.633 98.2724C159.58 98.5863 159.595 98.8689 159.68 99.1205C159.767 99.3725 159.904 99.5781 160.09 99.7374C160.275 99.8995 160.491 100.002 160.735 100.043L161.517 100.177C161.485 100.121 161.462 100.031 161.448 99.9074C161.433 99.7863 161.425 99.6516 161.423 99.5032C161.422 99.3548 161.423 99.2083 161.427 99.0638C161.431 98.9192 161.435 98.7939 161.438 98.6878C161.446 98.4492 161.43 98.2316 161.39 98.035C161.349 97.8384 161.273 97.6757 161.162 97.5471C161.054 97.4189 160.899 97.3375 160.697 97.3031C160.409 97.2538 160.174 97.3217 159.991 97.5068C159.808 97.6919 159.689 97.9471 159.633 98.2724Z" fill="black"/>
<path d="M162.404 111.565L156.613 107.38L157.104 105.698L164.235 105.28L163.762 106.904L158.53 106.99L158.51 107.057L162.876 109.945L162.404 111.565Z" fill="black"/>
<path d="M154.002 114.608C154.265 113.986 154.621 113.504 155.07 113.161C155.521 112.822 156.036 112.633 156.614 112.592C157.196 112.552 157.81 112.67 158.459 112.944C159.096 113.214 159.605 113.572 159.984 114.018C160.364 114.467 160.597 114.968 160.68 115.521C160.766 116.074 160.684 116.647 160.434 117.239C160.273 117.621 160.058 117.955 159.791 118.242C159.526 118.532 159.21 118.754 158.844 118.907C158.477 119.062 158.064 119.132 157.605 119.115C157.148 119.099 156.648 118.977 156.105 118.747L155.657 118.557L157.805 113.476L158.79 113.893L157.234 117.574C157.515 117.689 157.789 117.734 158.057 117.708C158.328 117.683 158.571 117.591 158.787 117.432C159.003 117.275 159.169 117.057 159.288 116.777C159.414 116.479 159.452 116.186 159.403 115.898C159.356 115.612 159.242 115.356 159.061 115.131C158.882 114.909 158.655 114.738 158.379 114.618L157.519 114.255C157.159 114.102 156.821 114.037 156.507 114.06C156.196 114.083 155.922 114.185 155.685 114.363C155.45 114.543 155.266 114.792 155.131 115.109C155.041 115.322 154.99 115.527 154.976 115.724C154.965 115.922 154.992 116.11 155.057 116.286C155.122 116.463 155.228 116.62 155.376 116.759L154.646 118.058C154.321 117.819 154.076 117.522 153.91 117.166C153.744 116.814 153.667 116.42 153.677 115.983C153.69 115.548 153.798 115.089 154.002 114.608Z" fill="black"/>
<path d="M153.507 130.375L152.472 129.716L154.548 126.452L155.583 127.111L153.507 130.375ZM156.431 128.782L155.579 130.121L150.249 126.728C150.069 126.614 149.914 126.553 149.784 126.546C149.654 126.543 149.543 126.576 149.45 126.646C149.358 126.715 149.276 126.805 149.206 126.916C149.152 127 149.11 127.08 149.078 127.157C149.045 127.236 149.022 127.297 149.008 127.341L147.819 126.9C147.839 126.813 147.877 126.694 147.933 126.542C147.986 126.392 148.071 126.221 148.186 126.028C148.39 125.687 148.632 125.417 148.914 125.219C149.198 125.022 149.509 124.921 149.846 124.913C150.181 124.909 150.526 125.02 150.879 125.249L156.431 128.782Z" fill="black"/>
<path d="M146.172 129.264L151.555 133.303L150.604 134.572L145.22 130.533L146.172 129.264ZM151.841 134.514C151.991 134.313 152.188 134.19 152.43 134.145C152.674 134.102 152.89 134.152 153.08 134.294C153.271 134.437 153.379 134.632 153.404 134.876C153.431 135.123 153.369 135.347 153.218 135.548C153.066 135.751 152.868 135.873 152.626 135.914C152.384 135.959 152.167 135.91 151.976 135.766C151.787 135.624 151.678 135.43 151.652 135.183C151.625 134.941 151.688 134.718 151.841 134.514Z" fill="black"/>
<path d="M143.794 132.737L148.721 137.321L147.689 138.431L146.852 137.652L146.798 137.71C146.985 138.075 147.047 138.45 146.985 138.835C146.925 139.222 146.741 139.58 146.435 139.909C146.125 140.243 145.782 140.449 145.407 140.526C145.031 140.608 144.661 140.567 144.295 140.402L144.248 140.454C144.42 140.818 144.467 141.204 144.389 141.614C144.311 142.029 144.106 142.414 143.774 142.772C143.352 143.225 142.865 143.462 142.312 143.482C141.759 143.502 141.207 143.257 140.658 142.745L137.35 139.669L138.433 138.504L141.561 141.413C141.867 141.698 142.166 141.824 142.458 141.793C142.753 141.764 143.009 141.632 143.228 141.396C143.489 141.116 143.605 140.815 143.576 140.494C143.548 140.176 143.395 139.888 143.117 139.63L140.044 136.771L141.103 135.632L144.279 138.586C144.534 138.823 144.808 138.935 145.103 138.922C145.396 138.911 145.657 138.783 145.886 138.537C146.041 138.37 146.14 138.178 146.181 137.962C146.225 137.747 146.208 137.528 146.129 137.303C146.053 137.081 145.913 136.875 145.71 136.686L142.714 133.899L143.794 132.737Z" fill="black"/>
<path d="M133.592 142.761C134.114 142.333 134.653 142.071 135.21 141.977C135.767 141.886 136.311 141.958 136.842 142.19C137.375 142.426 137.865 142.815 138.311 143.36C138.75 143.895 139.034 144.448 139.163 145.019C139.291 145.594 139.263 146.146 139.081 146.674C138.9 147.204 138.561 147.673 138.064 148.08C137.744 148.344 137.398 148.54 137.029 148.67C136.659 148.803 136.276 148.853 135.881 148.818C135.484 148.785 135.086 148.655 134.687 148.427C134.29 148.201 133.905 147.86 133.53 147.404L133.222 147.028L137.485 143.527L138.164 144.354L135.075 146.889C135.27 147.122 135.492 147.289 135.742 147.391C135.993 147.494 136.251 147.526 136.517 147.486C136.78 147.447 137.029 147.332 137.264 147.139C137.514 146.933 137.684 146.692 137.774 146.414C137.865 146.139 137.884 145.859 137.828 145.576C137.773 145.296 137.651 145.039 137.462 144.805L136.87 144.083C136.622 143.781 136.354 143.566 136.065 143.44C135.779 143.317 135.489 143.279 135.196 143.327C134.904 143.377 134.625 143.511 134.359 143.73C134.181 143.876 134.04 144.034 133.936 144.202C133.834 144.373 133.771 144.551 133.746 144.738C133.722 144.924 133.742 145.113 133.809 145.304L132.558 146.115C132.382 145.753 132.303 145.376 132.321 144.983C132.339 144.595 132.453 144.21 132.665 143.828C132.879 143.448 133.188 143.093 133.592 142.761Z" fill="black"/>
<path d="M125.795 156.501L125.183 155.438L128.536 153.507L129.148 154.57L125.795 156.501ZM129.125 156.444L127.75 157.236L124.598 151.761C124.491 151.576 124.382 151.45 124.269 151.383C124.156 151.321 124.042 151.299 123.928 151.317C123.814 151.336 123.7 151.378 123.586 151.443C123.5 151.493 123.425 151.544 123.362 151.598C123.295 151.653 123.246 151.696 123.214 151.728L122.364 150.787C122.423 150.72 122.512 150.631 122.631 150.522C122.748 150.414 122.902 150.302 123.094 150.185C123.432 149.976 123.772 149.849 124.114 149.804C124.457 149.762 124.779 149.816 125.081 149.965C125.38 150.116 125.634 150.375 125.841 150.741L129.125 156.444Z" fill="black"/>
<path d="M117.415 153.102C118.014 152.832 118.593 152.731 119.151 152.797C119.709 152.863 120.216 153.078 120.672 153.444C121.125 153.81 121.494 154.31 121.779 154.944C122.064 155.578 122.193 156.188 122.168 156.773C122.14 157.359 121.965 157.882 121.644 158.344C121.323 158.805 120.863 159.171 120.264 159.44C119.664 159.71 119.086 159.812 118.528 159.745C117.969 159.679 117.463 159.462 117.009 159.093C116.552 158.725 116.182 158.224 115.897 157.59C115.612 156.956 115.484 156.347 115.513 155.764C115.54 155.182 115.713 154.66 116.034 154.198C116.355 153.737 116.816 153.371 117.415 153.102ZM117.928 154.264C117.603 154.411 117.371 154.622 117.233 154.899C117.096 155.178 117.043 155.494 117.073 155.845C117.1 156.198 117.197 156.561 117.365 156.934C117.534 157.31 117.741 157.625 117.987 157.88C118.231 158.138 118.503 158.309 118.803 158.392C119.103 158.475 119.415 158.443 119.74 158.297C120.073 158.147 120.31 157.932 120.449 157.651C120.586 157.372 120.641 157.054 120.612 156.699C120.582 156.347 120.483 155.984 120.314 155.608C120.146 155.235 119.941 154.92 119.698 154.665C119.452 154.41 119.179 154.241 118.879 154.158C118.578 154.079 118.261 154.115 117.928 154.264Z" fill="black"/>
<path d="M107.44 154.487L109.621 163.48L108.105 163.848L107.843 162.766L107.754 162.788C107.713 162.966 107.642 163.162 107.54 163.376C107.439 163.593 107.281 163.795 107.065 163.983C106.85 164.174 106.551 164.315 106.167 164.408C105.662 164.531 105.175 164.512 104.707 164.353C104.236 164.196 103.82 163.896 103.46 163.451C103.098 163.01 102.828 162.426 102.652 161.7C102.478 160.982 102.447 160.343 102.561 159.783C102.675 159.223 102.903 158.762 103.245 158.4C103.586 158.037 104.014 157.794 104.528 157.669C104.903 157.578 105.229 157.565 105.506 157.63C105.783 157.695 106.018 157.797 106.212 157.937C106.403 158.08 106.559 158.221 106.679 158.36L106.743 158.344L105.898 154.861L107.44 154.487ZM107.316 160.577C107.214 160.154 107.064 159.798 106.868 159.509C106.669 159.22 106.434 159.014 106.163 158.891C105.891 158.77 105.591 158.75 105.265 158.829C104.924 158.912 104.661 159.072 104.475 159.309C104.29 159.55 104.178 159.843 104.139 160.189C104.097 160.539 104.126 160.918 104.225 161.327C104.324 161.733 104.469 162.079 104.662 162.366C104.855 162.653 105.088 162.858 105.361 162.981C105.635 163.104 105.943 163.124 106.286 163.04C106.616 162.96 106.874 162.806 107.062 162.577C107.25 162.348 107.366 162.063 107.409 161.722C107.45 161.381 107.419 161 107.316 160.577Z" fill="black"/>
<path d="M99.7718 158.855L100.702 165.52L99.1787 165.733L99.0237 164.622L98.9543 164.632C98.8865 165.034 98.7196 165.359 98.4536 165.609C98.185 165.861 97.8599 166.014 97.478 166.068C97.3912 166.08 97.2937 166.089 97.1854 166.095C97.0747 166.105 96.9821 166.108 96.9078 166.103L96.7062 164.658C96.7759 164.672 96.8844 164.677 97.0314 164.675C97.176 164.675 97.3148 164.666 97.4479 164.647C97.7343 164.607 97.9831 164.509 98.1943 164.353C98.403 164.2 98.5573 164.006 98.6572 163.771C98.7571 163.536 98.7873 163.276 98.7477 162.993L98.201 159.074L99.7718 158.855Z" fill="black"/>
<path d="M90.8391 159.702C91.5134 159.676 92.1011 159.793 92.6023 160.055C93.1007 160.319 93.4912 160.704 93.7738 161.211C94.0566 161.72 94.2115 162.327 94.2387 163.03C94.2654 163.722 94.1574 164.334 93.9149 164.867C93.6696 165.402 93.3147 165.825 92.8502 166.136C92.3858 166.449 91.8325 166.618 91.1904 166.642C90.7759 166.659 90.3822 166.606 90.0092 166.486C89.6335 166.369 89.2987 166.178 89.0048 165.911C88.7081 165.645 88.4697 165.301 88.2897 164.878C88.1098 164.458 88.0084 163.953 87.9857 163.364L87.9669 162.878L93.4791 162.665L93.5204 163.733L89.5274 163.887C89.542 164.191 89.6181 164.458 89.7557 164.69C89.8934 164.924 90.0801 165.105 90.316 165.234C90.549 165.362 90.8173 165.42 91.1208 165.409C91.4448 165.396 91.7263 165.306 91.9654 165.139C92.2047 164.975 92.388 164.763 92.5153 164.504C92.6399 164.248 92.6979 163.969 92.6892 163.669L92.6532 162.736C92.6381 162.345 92.5536 162.012 92.3998 161.737C92.246 161.466 92.0379 161.26 91.7753 161.121C91.5128 160.985 91.2093 160.924 90.8649 160.937C90.6343 160.946 90.4269 160.986 90.2425 161.058C90.0583 161.132 89.9001 161.236 89.7679 161.37C89.6356 161.504 89.5382 161.667 89.4754 161.859L87.9892 161.75C88.0675 161.355 88.2323 161.007 88.4838 160.705C88.7324 160.406 89.0565 160.168 89.456 159.992C89.8556 159.819 90.3167 159.722 90.8391 159.702Z" fill="black"/>
<path d="M80.7491 164.072L80.8396 162.769L84.8696 163.05L84.7791 164.352L80.7491 164.072Z" fill="black"/>
<path d="M75.4859 158.895C76.1333 159.008 76.6695 159.248 77.0944 159.616C77.5193 159.984 77.8179 160.447 77.9902 161.005C78.1596 161.563 78.1844 162.184 78.0647 162.869C77.9449 163.553 77.7105 164.131 77.3615 164.6C77.0096 165.07 76.5714 165.405 76.0468 165.607C75.5222 165.809 74.9363 165.853 74.2889 165.74C73.6415 165.626 73.1053 165.386 72.6804 165.018C72.2554 164.65 71.9585 164.186 71.7896 163.625C71.6179 163.065 71.5918 162.442 71.7116 161.757C71.8314 161.072 72.0669 160.497 72.4183 160.03C72.7669 159.563 73.2034 159.229 73.728 159.027C74.2525 158.826 74.8385 158.781 75.4859 158.895ZM75.2584 160.145C74.9074 160.083 74.597 160.128 74.3274 160.28C74.0572 160.434 73.8359 160.665 73.6635 160.973C73.4881 161.281 73.3652 161.636 73.2948 162.038C73.2239 162.444 73.2187 162.821 73.2793 163.17C73.3365 163.521 73.466 163.815 73.6677 164.052C73.8694 164.289 74.1458 164.438 74.4968 164.5C74.8565 164.562 75.1729 164.517 75.4459 164.363C75.716 164.209 75.939 163.976 76.1149 163.666C76.2873 163.358 76.409 163.002 76.48 162.596C76.5504 162.193 76.5568 161.817 76.499 161.469C76.4384 161.121 76.3073 160.828 76.1055 160.591C75.9004 160.356 75.6181 160.208 75.2584 160.145Z" fill="black"/>
<path d="M70.0212 157.978L68.2122 164.461L66.7309 164.047L67.0324 162.967L66.9649 162.948C66.7423 163.289 66.4593 163.521 66.1158 163.643C65.7687 163.768 65.4095 163.778 65.0381 163.675C64.9537 163.651 64.8606 163.62 64.7589 163.583C64.6535 163.547 64.5677 163.513 64.5013 163.479L64.8934 162.074C64.9519 162.114 65.0491 162.163 65.185 162.219C65.3174 162.277 65.4483 162.324 65.5777 162.36C65.8562 162.438 66.1235 162.448 66.3795 162.389C66.6319 162.332 66.8509 162.215 67.0364 162.04C67.2219 161.864 67.3531 161.638 67.43 161.363L68.4935 157.552L70.0212 157.978Z" fill="black"/>
<path d="M61.9673 155.376C62.4595 155.569 62.8504 155.869 63.14 156.274C63.4296 156.68 63.5928 157.167 63.6297 157.737C63.6665 158.307 63.55 158.936 63.2801 159.624C63.007 160.32 62.6624 160.863 62.2462 161.252C61.8263 161.642 61.3725 161.883 60.885 161.974C60.3964 162.068 59.9114 162.02 59.4302 161.831C59.0631 161.687 58.7858 161.506 58.5983 161.288C58.4098 161.073 58.2803 160.851 58.2099 160.623C58.1385 160.397 58.0945 160.193 58.0781 160.011L58.017 159.987L56.7912 163.111L55.3107 162.53L58.5879 154.177L60.0398 154.747L59.6526 155.734L59.7423 155.769C59.8782 155.646 60.0518 155.528 60.2631 155.413C60.4734 155.301 60.7202 155.232 61.0037 155.205C61.2872 155.178 61.6084 155.235 61.9673 155.376ZM61.0802 156.426C60.7675 156.303 60.4679 156.283 60.1815 156.365C59.8941 156.45 59.6335 156.622 59.3999 156.882C59.1662 157.141 58.9699 157.474 58.8109 157.879C58.652 158.284 58.5709 158.659 58.5678 159.003C58.5619 159.346 58.6365 159.643 58.7917 159.896C58.9442 160.147 59.1794 160.335 59.4976 160.46C59.8266 160.589 60.1348 160.611 60.4222 160.526C60.7097 160.441 60.9684 160.27 61.1983 160.012C61.4281 159.754 61.6194 159.43 61.7719 159.041C61.9255 158.65 62.0069 158.279 62.016 157.928C62.0212 157.578 61.9484 157.272 61.7975 157.009C61.6428 156.747 61.4037 156.553 61.0802 156.426Z" fill="black"/>
<path d="M53.9967 151.846C54.5922 152.164 55.0407 152.561 55.342 153.04C55.6394 153.519 55.7827 154.049 55.7717 154.629C55.7594 155.211 55.5879 155.813 55.2571 156.435C54.9318 157.046 54.5302 157.52 54.0525 157.858C53.5708 158.197 53.0513 158.384 52.4938 158.418C51.9349 158.454 51.3719 158.322 50.8047 158.02C50.4386 157.825 50.1247 157.581 49.863 157.29C49.5974 156.999 49.4047 156.665 49.2851 156.287C49.1628 155.907 49.1304 155.489 49.1878 155.034C49.2438 154.58 49.4105 154.093 49.6877 153.572L49.9163 153.143L54.785 155.736L54.2826 156.68L50.7558 154.801C50.6156 155.071 50.5467 155.34 50.5489 155.61C50.5498 155.881 50.6198 156.132 50.759 156.362C50.8955 156.59 51.0979 156.776 51.366 156.919C51.6522 157.071 51.9406 157.135 52.2313 157.111C52.5206 157.09 52.7855 157 53.0261 156.84C53.2627 156.681 53.453 156.47 53.597 156.206L54.0356 155.382C54.2195 155.036 54.3142 154.706 54.3196 154.391C54.3237 154.079 54.2473 153.797 54.0904 153.544C53.9322 153.295 53.701 153.089 53.3968 152.927C53.1931 152.818 52.9937 152.748 52.7985 152.717C52.6019 152.689 52.4128 152.699 52.2313 152.748C52.0497 152.797 51.8834 152.888 51.7323 153.023L50.5034 152.18C50.7699 151.878 51.0877 151.66 51.457 151.526C51.8224 151.393 52.2219 151.351 52.6558 151.4C53.0883 151.452 53.5352 151.601 53.9967 151.846Z" fill="black"/>
<path d="M49.131 149.306L45.3951 154.904L44.1161 154.05L44.7388 153.117L44.6805 153.078C44.3628 153.333 44.0217 153.465 43.6572 153.475C43.2886 153.485 42.944 153.383 42.6234 153.169C42.5505 153.12 42.4716 153.062 42.3866 152.995C42.2975 152.929 42.2267 152.869 42.174 152.816L42.984 151.603C43.0269 151.659 43.1042 151.736 43.2159 151.831C43.3236 151.928 43.4333 152.013 43.545 152.088C43.7855 152.249 44.0366 152.341 44.2982 152.364C44.5558 152.389 44.8 152.347 45.0309 152.237C45.2619 152.128 45.4568 151.955 45.6157 151.716L47.812 148.425L49.131 149.306Z" fill="black"/>
<path d="M11.1322 96.3204L15.0626 96.0013L15.1909 97.5822L6.24697 98.3085L6.12152 96.7625L9.49732 96.4884L9.49095 96.4097C9.0997 96.2833 8.78155 96.0644 8.5365 95.7531C8.2883 95.4392 8.1434 95.026 8.10182 94.5136C8.06402 94.0478 8.1286 93.6337 8.29555 93.2714C8.4625 92.9091 8.72608 92.6181 9.0863 92.3983C9.44628 92.1757 9.89703 92.0424 10.4386 91.9984L14.7096 91.6516L14.8379 93.2325L10.8114 93.5594C10.3601 93.5961 10.0188 93.741 9.78728 93.9943C9.55265 94.2449 9.45223 94.5783 9.48601 94.9947C9.50869 95.2741 9.59015 95.5196 9.73039 95.7309C9.86747 95.9396 10.0546 96.0973 10.2919 96.204C10.5289 96.3079 10.809 96.3467 11.1322 96.3204Z" fill="black"/>
<path d="M14.7228 87.1559C14.708 87.5821 14.6188 87.9634 14.4551 88.2997C14.2886 88.6329 14.0516 88.8936 13.744 89.0816C13.4365 89.2668 13.0624 89.3517 12.6216 89.3364C12.2421 89.3232 11.9307 89.2422 11.6874 89.0934C11.4442 88.9447 11.2523 88.7466 11.1118 88.4991C10.9714 88.2516 10.8685 87.9748 10.8031 87.6685C10.7349 87.3593 10.689 87.0406 10.6653 86.7124C10.6382 86.3169 10.6128 85.9959 10.5892 85.7496C10.5627 85.5032 10.5163 85.3233 10.4501 85.2099C10.3811 85.0935 10.2707 85.0327 10.1189 85.0274L10.0926 85.0265C9.76271 85.015 9.50388 85.1039 9.31609 85.2932C9.1283 85.4825 9.02802 85.7611 9.01524 86.1289C9.00176 86.5172 9.07572 86.8281 9.23712 87.0617C9.39863 87.2924 9.59333 87.4511 9.82121 87.538L9.55961 89.0107C9.15497 88.8797 8.82011 88.6752 8.55503 88.3971C8.28703 88.1189 8.09117 87.7833 7.96746 87.3902C7.84082 86.9971 7.78566 86.5655 7.80199 86.0955C7.81325 85.7715 7.8624 85.4502 7.94946 85.1317C8.03651 84.8133 8.17223 84.5242 8.35661 84.2647C8.53808 84.005 8.78048 83.8001 9.08382 83.6499C9.38726 83.4967 9.76231 83.4279 10.209 83.4435L14.7104 83.5999L14.6575 85.1238L13.7336 85.0917L13.7317 85.1442C13.9152 85.2471 14.0857 85.3889 14.2431 85.5697C14.3976 85.7475 14.52 85.9695 14.6101 86.2357C14.6974 86.4989 14.735 86.8056 14.7228 87.1559ZM13.5723 86.7038C13.5834 86.3856 13.5302 86.1076 13.4128 85.8697C13.2925 85.6317 13.1294 85.4463 12.9236 85.3134C12.7178 85.1777 12.4909 85.1055 12.2428 85.0969L11.4502 85.0693C11.4893 85.1204 11.5243 85.2063 11.5552 85.3272C11.5862 85.4452 11.6123 85.5777 11.6335 85.7245C11.6547 85.8714 11.673 86.0167 11.6885 86.1605C11.704 86.3042 11.7172 86.4289 11.7281 86.5345C11.752 86.7721 11.7972 86.9856 11.8637 87.1749C11.9302 87.3643 12.0272 87.5153 12.1548 87.6278C12.2795 87.7403 12.4441 87.8001 12.6484 87.8072C12.9403 87.8174 13.1644 87.7185 13.3207 87.5105C13.477 87.3026 13.5609 87.0337 13.5723 86.7038Z" fill="black"/>
<path d="M9.06461 73.7162L15.3603 77.0932L15.0982 78.8261L8.08551 80.1885L8.33847 78.5163L13.5128 77.7353L13.5233 77.666L8.8123 75.3841L9.06461 73.7162Z" fill="black"/>
<path d="M16.9555 69.6876C16.7791 70.3389 16.4914 70.8646 16.0924 71.2649C15.6914 71.6616 15.207 71.9192 14.6393 72.0377C14.0687 72.1554 13.4437 72.1222 12.7643 71.938C12.0961 71.7569 11.5441 71.471 11.1082 71.0805C10.6702 70.6863 10.3725 70.2213 10.2151 69.6853C10.0548 69.1485 10.0587 68.57 10.2268 67.9498C10.3352 67.5494 10.5024 67.1892 10.7283 66.8691C10.9522 66.5454 11.2351 66.2832 11.577 66.0823C11.9197 65.8786 12.3196 65.754 12.7768 65.7084C13.2312 65.6621 13.7431 65.7162 14.3126 65.8705L14.782 65.9978L13.3396 71.3222L12.3078 71.0425L13.3526 67.1856C13.0587 67.1089 12.7807 67.1016 12.5187 67.1638C12.254 67.2252 12.0251 67.3493 11.8323 67.5361C11.6402 67.7201 11.5045 67.9587 11.425 68.2519C11.3403 68.5649 11.3419 68.8604 11.43 69.1385C11.5153 69.4158 11.6626 69.654 11.8719 69.853C12.0793 70.0484 12.3277 70.1869 12.6174 70.2684L13.5181 70.5126C13.8959 70.615 14.2388 70.6338 14.5469 70.569C14.8522 70.5035 15.1103 70.3662 15.3213 70.157C15.5294 69.9471 15.6786 69.6758 15.7687 69.3432C15.8291 69.1204 15.8527 68.9104 15.8395 68.7132C15.8236 68.5152 15.7715 68.3331 15.6834 68.1669C15.5952 68.0008 15.4687 67.8591 15.3037 67.7417L15.8517 66.3559C16.205 66.5485 16.4883 66.8099 16.7015 67.1401C16.9126 67.4666 17.0426 67.8469 17.0915 68.2808C17.1376 68.714 17.0923 69.1829 16.9555 69.6876Z" fill="black"/>
<path d="M15.1976 54.2578L16.3127 54.7693L14.7004 58.2862L13.5853 57.7747L15.1976 54.2578ZM12.5178 56.2341L13.1788 54.7923L18.9215 57.4267C19.1153 57.5156 19.2774 57.5546 19.4077 57.5437C19.5366 57.5289 19.6421 57.4809 19.7243 57.3997C19.8065 57.3185 19.875 57.2182 19.9298 57.0987C19.9712 57.0084 20.0023 56.9231 20.0231 56.8426C20.0451 56.7595 20.06 56.6956 20.0676 56.6509L21.306 56.925C21.2973 57.0142 21.276 57.1378 21.2421 57.2958C21.2094 57.4511 21.1489 57.6322 21.0605 57.8391C20.9056 58.2051 20.702 58.5054 20.4499 58.74C20.195 58.9734 19.9012 59.1166 19.5685 59.1697C19.2369 59.22 18.8806 59.1562 18.4995 58.9781L12.5178 56.2341Z" fill="black"/>
<path d="M22.658 54.2569L16.7776 50.9836L17.5487 49.5975L23.429 52.8708L22.658 54.2569ZM16.3307 49.8222C16.2086 50.0417 16.0308 50.1901 15.7973 50.2674C15.5612 50.3433 15.3398 50.3237 15.1331 50.2086C14.9238 50.0921 14.7904 49.9142 14.733 49.675C14.673 49.4343 14.704 49.2042 14.8262 48.9847C14.9497 48.7626 15.1288 48.6149 15.3634 48.5416C15.5969 48.4643 15.8183 48.4839 16.0276 48.6004C16.2344 48.7155 16.3677 48.8934 16.4277 49.134C16.4866 49.3707 16.4542 49.6001 16.3307 49.8222Z" fill="black"/>
<path d="M24.5812 50.3867L19.0963 46.4869L19.9744 45.2511L20.9064 45.9137L20.9521 45.8494C20.7191 45.5117 20.6084 45.1481 20.62 44.7585C20.6293 44.3673 20.7642 43.9883 21.0247 43.6216C21.2887 43.2502 21.6016 43.0014 21.9636 42.8752C22.3249 42.745 22.6975 42.7376 23.0814 42.8528L23.122 42.7957C22.9036 42.4576 22.8063 42.0802 22.8301 41.6634C22.8532 41.2426 23.006 40.8334 23.2886 40.4357C23.6473 39.9309 24.0995 39.6324 24.6452 39.5401C25.1909 39.4479 25.7697 39.6193 26.3815 40.0543L30.0631 42.6719L29.1419 43.9684L25.6602 41.493C25.3198 41.2509 25.0067 41.1645 24.721 41.2338C24.4329 41.3013 24.1958 41.4661 24.0097 41.728C23.7881 42.0399 23.7122 42.3534 23.7823 42.6684C23.8516 42.9793 24.041 43.2448 24.3504 43.4648L27.7714 45.8971L26.8704 47.1651L23.3352 44.6515C23.0519 44.4501 22.7649 44.375 22.474 44.4263C22.1849 44.4751 21.943 44.6365 21.7484 44.9103C21.6164 45.096 21.5439 45.299 21.5309 45.5191C21.5154 45.7375 21.5613 45.9528 21.6684 46.1652C21.7731 46.3758 21.9385 46.5616 22.1647 46.7224L25.4999 49.0937L24.5812 50.3867Z" fill="black"/>
<path d="M33.1884 39.2849C32.729 39.7791 32.2296 40.1104 31.6901 40.2789C31.1506 40.4432 30.602 40.4456 30.0444 40.286C29.4848 40.1244 28.9472 39.8039 28.4317 39.3244C27.9248 38.8529 27.5695 38.3429 27.3656 37.7942C27.1616 37.2414 27.1147 36.6912 27.225 36.1435C27.3331 35.5938 27.606 35.0837 28.0435 34.613C28.3259 34.3092 28.6416 34.0682 28.9905 33.8902C29.3393 33.708 29.7118 33.6076 30.1079 33.5891C30.506 33.5684 30.9179 33.6444 31.3436 33.817C31.7673 33.9877 32.1951 34.2739 32.6272 34.6758L32.9833 35.0071L29.2276 39.0475L28.4448 38.3193L31.1653 35.3925C30.9409 35.1878 30.6983 35.0519 30.4376 34.9849C30.1747 34.9159 29.9144 34.9191 29.6568 34.9946C29.4012 35.068 29.1699 35.216 28.9631 35.4385C28.7424 35.6759 28.6062 35.9383 28.5547 36.2254C28.501 36.5106 28.5204 36.79 28.613 37.0636C28.7055 37.3331 28.8609 37.5714 29.0792 37.7784L29.7625 38.4141C30.0491 38.6806 30.3438 38.857 30.6466 38.9432C30.9472 39.0273 31.2396 39.026 31.5236 38.9392C31.8056 38.8504 32.0639 38.6797 32.2986 38.4273C32.4557 38.2583 32.5743 38.0834 32.6546 37.9027C32.7327 37.72 32.7714 37.5347 32.7707 37.3466C32.7701 37.1585 32.7241 36.9741 32.6328 36.7934L33.763 35.8221C33.986 36.1572 34.1149 36.5204 34.1498 36.9119C34.1846 37.2993 34.1225 37.6964 33.9637 38.1032C33.8028 38.508 33.5443 38.9019 33.1884 39.2849Z" fill="black"/>
<path d="M39.2057 24.4641L39.9524 25.4376L36.8832 27.7931L36.1366 26.8196L39.2057 24.4641ZM35.913 24.9587L37.1713 23.993L41.0165 29.0063C41.1462 29.1755 41.2713 29.2858 41.3916 29.337C41.5125 29.3842 41.6282 29.3911 41.7388 29.3578C41.8494 29.3244 41.9569 29.2677 42.0612 29.1877C42.14 29.1272 42.2073 29.0663 42.2633 29.0049C42.3217 28.9418 42.3646 28.8922 42.3923 28.8563L43.359 29.6774C43.3095 29.7522 43.2329 29.8515 43.1291 29.9753C43.0276 30.0974 42.8895 30.2292 42.7146 30.3708C42.4066 30.6219 42.0862 30.7923 41.7537 30.8818C41.4193 30.969 41.0927 30.9583 40.7737 30.8496C40.457 30.7391 40.1719 30.5161 39.9182 30.1806L35.913 24.9587Z" fill="black"/>
<path d="M47.8145 26.785C47.2562 27.1318 46.696 27.3094 46.1341 27.318C45.5722 27.3266 45.0412 27.1802 44.5412 26.8787C44.0437 26.5756 43.6116 26.1287 43.2449 25.5381C42.8783 24.9474 42.6688 24.3606 42.6164 23.7777C42.5664 23.1932 42.6699 22.6509 42.9268 22.151C43.1837 21.651 43.5914 21.2276 44.1497 20.8808C44.708 20.5341 45.2681 20.3564 45.83 20.3478C46.392 20.3392 46.9225 20.4877 47.4215 20.7932C47.9231 21.0972 48.3572 21.5446 48.7238 22.1352C49.0904 22.7259 49.298 23.3122 49.3464 23.8942C49.3972 24.4747 49.2942 25.0149 49.0373 25.5149C48.7804 26.0149 48.3728 26.4382 47.8145 26.785ZM47.1518 25.7008C47.4545 25.5128 47.656 25.2724 47.7563 24.9798C47.855 24.6847 47.8662 24.3648 47.7898 24.0202C47.7159 23.6741 47.5712 23.3273 47.3555 22.9799C47.1383 22.63 46.891 22.3451 46.6137 22.1254C46.3373 21.9016 46.0449 21.7686 45.7367 21.7262C45.4285 21.6838 45.123 21.7566 44.8203 21.9446C44.5101 22.1373 44.3044 22.3819 44.2032 22.6786C44.1045 22.9737 44.0929 23.2956 44.1683 23.6442C44.2446 23.9888 44.3914 24.336 44.6086 24.6859C44.8243 25.0334 45.0696 25.3178 45.3444 25.539C45.6218 25.7588 45.9146 25.8898 46.2228 25.9322C46.532 25.9706 46.8416 25.8934 47.1518 25.7008Z" fill="black"/>
<path d="M57.5042 24.0169L54.1246 15.4024L55.5766 14.8324L55.983 15.8685L56.0687 15.8348C56.0851 15.6527 56.129 15.4487 56.2005 15.223C56.2709 14.9945 56.4003 14.7727 56.5889 14.5574C56.7764 14.3395 57.0536 14.1585 57.4207 14.0144C57.9047 13.8244 58.3896 13.7768 58.8755 13.8716C59.3631 13.9627 59.8155 14.204 60.2327 14.5956C60.6516 14.9835 60.9976 15.5255 61.2707 16.2216C61.5405 16.9096 61.6571 17.5385 61.6202 18.1084C61.5834 18.6783 61.4201 19.166 61.1305 19.5716C60.8409 19.9771 60.45 20.2764 59.9579 20.4696C59.599 20.6105 59.2778 20.6676 58.9943 20.6408C58.7108 20.614 58.4639 20.5446 58.2537 20.4326C58.0451 20.3167 57.8715 20.1982 57.7329 20.0769L57.6717 20.1009L58.9807 23.4374L57.5042 24.0169ZM56.8015 17.9666C56.9604 18.3718 57.1567 18.7042 57.3904 18.9639C57.6268 19.2226 57.8874 19.3949 58.1721 19.4808C58.4585 19.5629 58.758 19.5426 59.0707 19.4199C59.397 19.2918 59.6361 19.0975 59.7881 18.837C59.939 18.5738 60.0104 18.2681 60.0024 17.9198C59.9961 17.5677 59.9161 17.1958 59.7625 16.8042C59.6099 16.4154 59.4187 16.0919 59.1888 15.8339C58.9589 15.5758 58.7002 15.4043 58.4128 15.3195C58.1253 15.2346 57.8171 15.2568 57.4881 15.3859C57.1727 15.5097 56.9374 15.6978 56.7823 15.9501C56.6271 16.2024 56.5511 16.5006 56.5542 16.8445C56.5601 17.1874 56.6425 17.5614 56.8015 17.9666Z" fill="black"/>
<path d="M64.6203 18.5869L62.8113 12.1045L64.2926 11.6909L64.5941 12.7713L64.6616 12.7525C64.6754 12.3453 64.7974 12.0003 65.0279 11.7176C65.2603 11.4313 65.5623 11.2363 65.9336 11.1326C66.018 11.109 66.1134 11.0869 66.2199 11.0663C66.3284 11.0421 66.4197 11.0272 66.494 11.0216L66.8862 12.427C66.8152 12.4225 66.707 12.4315 66.5616 12.4539C66.4183 12.4727 66.2819 12.5002 66.1525 12.5363C65.874 12.6141 65.6404 12.7445 65.452 12.9275C65.2655 13.107 65.1384 13.3199 65.0707 13.5663C65.003 13.8126 65.0076 14.0737 65.0845 14.3494L66.148 18.1603L64.6203 18.5869Z" fill="black"/>
<path d="M73.1029 16.5798C72.4382 16.696 71.84 16.6583 71.3083 16.4666C70.779 16.2716 70.3403 15.9421 69.9922 15.4781C69.6437 15.0112 69.4088 14.4311 69.2875 13.7376C69.1682 13.0557 69.193 12.4346 69.3618 11.8742C69.5331 11.3105 69.828 10.8438 70.2467 10.474C70.6648 10.1014 71.1904 9.85968 71.8234 9.74896C72.232 9.67749 72.6292 9.67622 73.0149 9.74517C73.4029 9.81073 73.7604 9.95577 74.0873 10.1803C74.4171 10.4043 74.6996 10.7137 74.9347 11.1085C75.1693 11.5004 75.3375 11.987 75.4392 12.5682L75.523 13.0473L70.0891 13.9977L69.9049 12.9446L73.8411 12.2561C73.7859 11.9574 73.6746 11.7026 73.5072 11.4916C73.3393 11.2778 73.1299 11.1232 72.8789 11.0277C72.6308 10.9318 72.3572 10.9099 72.0579 10.9623C71.7386 11.0182 71.4716 11.1449 71.2571 11.3426C71.0421 11.5373 70.8888 11.7717 70.7974 12.0457C70.7083 12.3163 70.6883 12.6 70.7372 12.8969L70.8981 13.8162C70.9655 14.2018 71.0939 14.5203 71.2832 14.7719C71.472 15.0206 71.7058 15.1961 71.9847 15.2986C72.2631 15.3982 72.572 15.4183 72.9116 15.3589C73.1389 15.3191 73.3391 15.2515 73.5121 15.156C73.6847 15.0576 73.8275 14.9333 73.9406 14.783C74.0537 14.6327 74.1284 14.4581 74.1648 14.259L75.6523 14.1678C75.6276 14.5695 75.511 14.9368 75.3024 15.2698C75.0961 15.5995 74.8069 15.8784 74.4346 16.1066C74.0618 16.332 73.6179 16.4897 73.1029 16.5798Z" fill="black"/>
<path d="M82.0638 10.8945L82.1544 12.197L78.1244 12.4773L78.0338 11.1747L82.0638 10.8945Z" fill="black"/>
<path d="M88.4496 15.2637C87.7929 15.2383 87.2293 15.0719 86.7588 14.7643C86.2884 14.4567 85.9304 14.0381 85.6848 13.5082C85.4422 12.9785 85.3343 12.3664 85.3611 11.6717C85.3879 10.977 85.5428 10.3735 85.8256 9.86116C86.1114 9.34894 86.5007 8.95765 86.9935 8.68728C87.4862 8.41691 88.061 8.2944 88.7177 8.31976C89.3745 8.34512 89.9381 8.51158 90.4085 8.81914C90.879 9.1267 91.2354 9.54678 91.478 10.0794C91.7234 10.6121 91.8327 11.2258 91.8059 11.9205C91.7791 12.6152 91.6228 13.2172 91.3371 13.7265C91.0544 14.2359 90.6666 14.6258 90.1739 14.8962C89.6811 15.1665 89.1063 15.289 88.4496 15.2637ZM88.5074 13.9943C88.8635 14.0081 89.165 13.9218 89.4119 13.7355C89.6589 13.5462 89.8472 13.2875 89.9768 12.9592C90.1093 12.6311 90.1835 12.2627 90.1992 11.8541C90.2151 11.4425 90.1697 11.0681 90.0628 10.7307C89.959 10.3905 89.7913 10.1166 89.5596 9.90886C89.328 9.70114 89.0341 9.59041 88.678 9.57666C88.3131 9.56257 88.0057 9.65009 87.7558 9.83922C87.5088 10.0285 87.319 10.2886 87.1863 10.6196C87.0567 10.9479 86.984 11.3178 86.9681 11.7293C86.9523 12.138 86.9964 12.5109 87.1003 12.8482C87.2071 13.1855 87.3763 13.4581 87.608 13.6658C87.8427 13.8707 88.1425 13.9802 88.5074 13.9943Z" fill="black"/>
<path d="M94.0998 15.4113L95.0302 8.74594L96.5533 8.95853L96.3983 10.0694L96.4677 10.0791C96.6429 9.71131 96.8926 9.44385 97.2168 9.27674C97.5442 9.10714 97.8989 9.04899 98.2807 9.10229C98.3675 9.1144 98.4638 9.13227 98.5697 9.15589C98.6788 9.17701 98.7685 9.19986 98.8388 9.22442L98.6371 10.6695C98.5738 10.637 98.471 10.602 98.3288 10.5645C98.1899 10.5245 98.0539 10.4952 97.9208 10.4766C97.6344 10.4366 97.3682 10.4629 97.1223 10.5554C96.8797 10.6454 96.6782 10.7898 96.5177 10.9886C96.3573 11.1874 96.2572 11.4286 96.2177 11.7121L95.6707 15.6306L94.0998 15.4113Z" fill="black"/>
<path d="M102.298 16.8464C101.784 16.7218 101.356 16.4782 101.014 16.1157C100.673 15.7532 100.445 15.2922 100.331 14.7325C100.217 14.1729 100.248 13.5341 100.422 12.8159C100.598 12.0892 100.866 11.505 101.226 11.0632C101.589 10.6193 102.006 10.3192 102.477 10.1629C102.948 10.0038 103.435 9.9852 103.938 10.1071C104.321 10.2001 104.62 10.3418 104.836 10.5323C105.051 10.72 105.21 10.9222 105.311 11.139C105.412 11.353 105.483 11.5491 105.524 11.7273L105.588 11.7428L106.379 8.48125L107.925 8.85628L105.809 17.5766L104.293 17.2088L104.543 16.1783L104.449 16.1556C104.331 16.2953 104.175 16.4363 103.982 16.5786C103.788 16.7181 103.553 16.8203 103.276 16.8853C102.999 16.9503 102.673 16.9373 102.298 16.8464ZM103.035 15.6862C103.361 15.7654 103.661 15.7449 103.933 15.6247C104.207 15.5016 104.442 15.2956 104.638 15.0066C104.834 14.7176 104.984 14.3616 105.087 13.9387C105.189 13.5157 105.219 13.1336 105.175 12.7925C105.135 12.452 105.02 12.1672 104.833 11.9383C104.647 11.71 104.389 11.5556 104.057 11.475C103.713 11.3917 103.405 11.4115 103.132 11.5346C102.858 11.6576 102.625 11.8626 102.432 12.1494C102.239 12.4363 102.094 12.7827 101.995 13.1886C101.896 13.5974 101.866 13.9762 101.904 14.3252C101.946 14.6721 102.06 14.9657 102.245 15.206C102.434 15.4441 102.697 15.6042 103.035 15.6862Z" fill="black"/>
<path d="M110.984 19.3302C110.351 19.0955 109.854 18.7613 109.491 18.3277C109.132 17.8923 108.919 17.3865 108.853 16.8103C108.787 16.2314 108.877 15.6119 109.121 14.9518C109.362 14.3027 109.697 13.7788 110.125 13.38C110.557 12.9795 111.047 12.7251 111.595 12.6169C112.144 12.5059 112.719 12.5622 113.322 12.7858C113.711 12.9301 114.054 13.1292 114.353 13.3832C114.655 13.6355 114.89 13.9411 115.06 14.2998C115.231 14.6596 115.319 15.0692 115.324 15.5287C115.329 15.9855 115.229 16.4905 115.023 17.0437L114.854 17.4997L109.683 15.5807L110.054 14.5783L113.801 15.9684C113.903 15.6826 113.936 15.4064 113.898 15.1398C113.86 14.8705 113.757 14.6314 113.589 14.4224C113.423 14.2144 113.198 14.0576 112.913 13.9519C112.609 13.8391 112.314 13.814 112.03 13.8765C111.746 13.9363 111.495 14.0614 111.278 14.252C111.065 14.4407 110.904 14.6757 110.797 14.9568L110.473 15.8318C110.337 16.1988 110.287 16.5386 110.324 16.8513C110.361 17.1613 110.475 17.4309 110.664 17.66C110.854 17.8863 111.111 18.0595 111.434 18.1794C111.65 18.2596 111.857 18.3022 112.055 18.307C112.253 18.309 112.439 18.2736 112.613 18.2009C112.786 18.1282 112.939 18.015 113.071 17.8613L114.401 18.5326C114.177 18.8671 113.892 19.1256 113.544 19.308C113.199 19.4887 112.809 19.5837 112.372 19.5931C111.937 19.5998 111.474 19.5121 110.984 19.3302Z" fill="black"/>
<path d="M116.178 21.191L119.141 15.1483L120.521 15.8256L120.027 16.8328L120.09 16.8636C120.372 16.5688 120.692 16.3927 121.052 16.335C121.416 16.2761 121.771 16.3315 122.117 16.5014C122.196 16.54 122.282 16.587 122.375 16.6425C122.472 16.6966 122.55 16.7463 122.61 16.7916L121.967 18.1016C121.917 18.0511 121.83 17.9858 121.707 17.9057C121.588 17.8243 121.467 17.754 121.347 17.6948C121.087 17.5674 120.826 17.5093 120.564 17.5205C120.305 17.5303 120.069 17.6046 119.854 17.7434C119.64 17.8822 119.47 18.0801 119.343 18.3371L117.602 21.8896L116.178 21.191Z" fill="black"/>
<defs>
<radialGradient id="paint0_angular_1_398" cx="0" cy="0" r="1" gradientUnits="userSpaceOnUse" gradientTransform="translate(86.5031 88.0272) rotate(-28.6659) scale(189.765 189.796)">
<stop offset="0.055953" stop-color="#B8FF41"/>
<stop offset="0.123516" stop-color="#BAFF43"/>
<stop offset="0.167081" stop-color="#BAFF43"/>
<stop offset="0.228764" stop-color="#BAFF43"/>
<stop offset="0.301658" stop-color="#BAFF43"/>
<stop offset="0.482335" stop-color="#92E10B"/>
<stop offset="0.661458" stop-color="#BAFF43"/>
<stop offset="0.77936" stop-color="#BAFF43"/>
<stop offset="0.828125" stop-color="#BAFF43"/>
<stop offset="0.931728" stop-color="#92E10B"/>
</radialGradient>
</defs>
</svg>
